{"title":"The Martian (2015) 1080P WEB-DL [KNIGHTS]","uid":14070843,"size":5048595910,"categoryP":"video","categoryS":"hd___movies","magnet":"?xt=urn:btih:92495a80cf371d8ef7936573dc04a6f8ef3fe7a7&amp;dn=The+Martian+%282015%29+1080P+WEB-DL+%5BKNIGHTS%5D&amp;tr=udp%3A%2F%2Ftracker.leechers-paradise.org%3A6969&amp;tr=udp%3A%2F%2Fzer0day.ch%3A1337&amp;tr=udp%3A%2F%2Fopen.demonii.com%3A1337&amp;tr=udp%3A%2F%2Ftracker.coppersurfer.tk%3A6969&amp;tr=udp%3A%2F%2Fexodus.desync.com%3A6969","seeders":0,"leechers":0,"uploader":"rapidintection","files":8,"time":1459173964,"description":"The Martian (2015) 1080P WEB-DL [KNIGHTS]\r\n\r\nCover Artwork \nhttp://i.imgur.com/C1YQfHF.jpg\r\n\r\nScreen Shots \nhttp://i.imgur.com/MWkwLOa.jpg \nhttp://i.imgur.com/yYPWwhm.jpg \nhttp://i.imgur.com/0duYm7W.jpg \nhttp://i.imgur.com/EBwFU9u.jpg \nhttp://i.imgur.com/c6vHFD3.jpg \nhttp://i.imgur.com/wKK6cUM.jpg\r\n\r\nGeneral\r\nFormat                         : Matroska\r\nFormat version                 : Version 4 / Version 2\r\nFile size                      : 4.70 GiB\r\nDuration                       : 2h 21mn\r\nOverall bit rate               : 4 744 Kbps\r\nMovie name                     : The Martian (2015) 1080P WEB-DL [KNIGHTS]\r\n\r\nVideo\r\nID                             : 1\r\nFormat                         : AVC\r\nFormat/Info                    : Advanced Video Codec\r\nFormat profile                 :   \r\nFormat settings, CABAC         : Yes\r\nFormat settings, ReFrames      : 5 frames\r\nCodec ID                       : V_MPEG4/ISO/AVC\r\nDuration                       : 2h 21mn\r\nBit rate                       : 4 265 Kbps\r\nWidth                          : 1 916 pixels\r\nHeight                         : 796 pixels\r\nDisplay aspect ratio           : 2.40:1\r\nFrame rate mode                : Constant\r\nFrame rate                     : 23.976 fps\r\nColor space                    : YUV\r\nChroma subsampling             : 4:2:0\r\nBit depth                      : 8 bits\r\nScan type                      : Progressive\r\nBits/(Pixel*Frame)             : 0.117\r\nStream size                    : 4.22 GiB (90%)\r\nTitle                          : The Martian (2015) 1080P WEB-DL [KNIGHTS]\r\nLanguage                       : English\r\nDefault                        : Yes\r\nForced                         : No\r\nColor range                    : Limited\r\nColor primaries                : BT.709\r\nTransfer characteristics       : BT.709\r\nMatrix coefficients            : BT.709\r\n\r\nAudio\r\nID                             : 2\r\nFormat                         : AC-3\r\nFormat/Info                    : Audio Coding 3\r\nMode extension                 : CM (complete main)\r\nFormat settings, Endianness    : Big\r\nCodec ID                       : A_AC3\r\nDuration                       : 2h 21mn\r\nBit rate mode                  : Constant\r\nBit rate                       : 384 Kbps\r\nChannel(s)                     : 6 channels\r\nChannel positions              : Front: L C R, Side: L R, LFE\r\nSampling rate                  : 48.0 KHz\r\nCompression mode               : Lossy\r\nStream size                    : 389 MiB (8%)\r\nTitle                          : The Martian (2015) 1080P WEB-DL [KNIGHTS]\r\nLanguage                       : English\r\nDefault                        : Yes\r\nForced                         : No\r\n\r\nText\r\nID                             : 3\r\nFormat                         : UTF-8\r\nCodec ID                       : S_TEXT/UTF8\r\nCodec ID/Info                  : UTF-8 Plain Text\r\nLanguage                       : English\r\nDefault                        : Yes\r\nForced                         : No\r\n\r\n***Brought To You By KNIGHTS***","torrent":{"xt":"urn:btih:92495a80cf371d8ef7936573dc04a6f8ef3fe7a7","amp;dn":"The+Martian+%282015%29+1080P+WEB-DL+%5BKNIGHTS%5D","amp;tr":["udp%3A%2F%2Ftracker.leechers-paradise.org%3A6969","udp%3A%2F%2Fzer0day.ch%3A1337","udp%3A%2F%2Fopen.demonii.com%3A1337","udp%3A%2F%2Ftracker.coppersurfer.tk%3A6969","udp%3A%2F%2Fexodus.desync.com%3A6969"],"infoHash":"92495a80cf371d8ef7936573dc04a6f8ef3fe7a7","infoHashBuffer":{"type":"Buffer","data":[146,73,90,128,207,55,29,142,247,147,101,115,220,4,166,248,239,63,231,167]},"announce":[],"urlList":[]}}